<svg width="190" height="70" viewBox="0 0 190 70" fill="none" xmlns="http://www.w3.org/2000/svg">
<g clip-path="url(#clip0_1_143)">
<mask id="mask0_1_143" style="mask-type:luminance" maskUnits="userSpaceOnUse" x="0" y="0" width="190" height="70">
<path d="M190 0H0V70H190V0Z" fill="white"/>
</mask>
<g mask="url(#mask0_1_143)">
<path fill-rule="evenodd" clip-rule="evenodd" d="M30.37 26.28C30.8788 26.5018 31.3004 26.9138 31.6429 27.3476C32.0567 27.8705 32.3952 28.4726 32.6981 29.0609C32.7931 29.2431 32.8842 29.4273 32.9732 29.6115L41.9451 47.9548C42.3212 48.5985 42.9131 49.0462 43.6278 49.2244C44.287 49.3868 44.9918 49.2997 45.5639 48.9867C46.0073 48.7431 46.3558 48.3747 46.5537 47.9072C46.7913 47.3487 46.7853 46.7267 46.6329 46.1226C46.5597 45.8335 46.4448 45.5383 46.33 45.261C46.1875 44.9184 46.0291 44.5797 45.8688 44.2429C45.7223 43.9399 45.5738 43.6369 45.4233 43.3358C45.2947 43.0743 45.164 42.8149 45.0393 42.5514C44.481 41.365 43.8851 40.1944 43.3427 39.002C42.1905 36.4647 40.9948 33.9433 39.7892 31.4278C38.7341 29.2233 37.669 27.0207 36.6198 24.8142C36.5386 24.6419 36.4594 24.4696 36.3802 24.2953C36.2516 24.014 36.1249 23.7308 35.9982 23.4495C35.6616 22.7048 35.3271 21.9581 34.9885 21.2133C34.6223 20.4012 34.2521 19.5911 33.874 18.785C33.7414 18.5037 33.6087 18.2225 33.4701 17.9452C33.4325 17.8679 33.3929 17.7907 33.3514 17.7154L30.3641 26.2839L30.37 26.28Z" fill="#122549"/>
<path fill-rule="evenodd" clip-rule="evenodd" d="M20.4301 44.1281C20.4222 43.316 20.5667 42.9198 20.7726 42.2444C17.4923 47.624 21.2833 50.2564 23.8371 48.9907C26.3216 47.7587 25.8781 43.8844 22.97 43.411C22.4632 43.3279 21.9663 43.3774 21.4991 43.5497C21.0656 43.7101 20.7429 44.0369 20.4301 44.1281Z" fill="#122549"/>
<path d="M95.4929 49.3135H92.276L89.3441 42.1493H80.21L77.2702 49.3096L74.3046 49.3135L84.3732 25.6125H85.1156L95.4929 49.3135ZM88.4651 40.0617L84.6167 30.1106L80.8949 40.0617H88.4651Z" fill="#122549"/>
<path d="M144.488 28.0408H137.889V49.3076H135.039V28.0408H128.44V25.6105H144.488V28.0408Z" fill="#122549"/>
<path d="M172.516 49.3135H169.299L166.365 42.1493H157.231L154.291 49.3096L151.325 49.3135L161.394 25.6125H162.138L172.516 49.3135ZM165.486 40.0617L161.637 30.1106L157.916 40.0617H165.486Z" fill="#122549"/>
<path d="M117.259 39.0179C116.675 38.0651 115.81 37.2966 114.666 36.7103C113.916 36.334 112.617 35.8903 110.764 35.3773C108.87 34.8544 107.654 34.3375 107.112 33.8264C106.571 33.3174 106.3 32.5984 106.3 31.6714C106.3 30.6712 106.67 29.8571 107.409 29.2272C108.147 28.5974 109.22 28.2824 110.625 28.2824C112.031 28.2824 113.084 28.641 113.848 29.3599C114.327 29.8096 114.682 30.4117 114.909 31.1644L117.174 30.0314C117.034 29.5996 116.857 29.1936 116.644 28.8133C116.066 27.7813 115.254 26.991 114.209 26.4384C113.163 25.8858 111.942 25.6105 110.548 25.6105C108.519 25.6105 106.906 26.1987 105.708 27.3753C104.51 28.5518 103.912 30.0671 103.912 31.921C103.912 32.9529 104.12 33.8759 104.538 34.694C104.954 35.512 105.538 36.1854 106.286 36.7163C107.036 37.2471 108.295 37.7759 110.065 38.3008C112.053 38.8891 113.348 39.3447 113.945 39.6675C114.543 39.9904 114.991 40.4024 115.288 40.9074C115.585 41.4105 115.733 42.0008 115.733 42.6762C115.733 43.829 115.323 44.7678 114.508 45.4908C113.69 46.2137 112.542 46.5742 111.065 46.5742C110.034 46.5742 109.107 46.3603 108.286 45.9345C107.464 45.5066 106.83 44.9421 106.389 44.239C106.106 43.7894 105.888 43.2249 105.736 42.5475L103.453 43.6903C103.778 45.0927 104.407 46.2672 105.344 47.214C106.724 48.6104 108.573 49.3076 110.895 49.3076C112.383 49.3076 113.656 49.0263 114.711 48.4658C115.769 47.9033 116.604 47.0853 117.218 46.0077C117.831 44.9302 118.138 43.7379 118.138 42.4266C118.138 41.1154 117.845 39.9686 117.261 39.0179" fill="#122549"/>
</g>
</g>
<defs>
<clipPath id="clip0_1_143">
<rect width="190" height="70" fill="white"/>
</clipPath>
</defs>
</svg>
