<svg width="190" height="70" viewBox="0 0 190 70" fill="none" xmlns="http://www.w3.org/2000/svg">
<g clip-path="url(#clip0_1_277)">
<mask id="mask0_1_277" style="mask-type:luminance" maskUnits="userSpaceOnUse" x="0" y="0" width="190" height="70">
<path d="M190 0H0V70H190V0Z" fill="white"/>
</mask>
<g mask="url(#mask0_1_277)">
<path fill-rule="evenodd" clip-rule="evenodd" d="M30.37 26.2799C30.8788 26.5017 31.3004 26.9137 31.6429 27.3475C32.0567 27.8704 32.3952 28.4725 32.6981 29.0608C32.7931 29.243 32.8842 29.4272 32.9732 29.6114L41.9451 47.9547C42.3212 48.5984 42.9131 49.0461 43.6278 49.2243C44.287 49.3868 44.9918 49.2996 45.5639 48.9867C46.0073 48.743 46.3558 48.3746 46.5537 47.9072C46.7913 47.3486 46.7853 46.7267 46.6329 46.1226C46.5597 45.8334 46.4448 45.5383 46.33 45.261C46.1875 44.9183 46.0291 44.5796 45.8688 44.2429C45.7223 43.9398 45.5738 43.6368 45.4233 43.3357C45.2947 43.0743 45.164 42.8148 45.0393 42.5514C44.481 41.3649 43.8851 40.1943 43.3427 39.0019C42.1905 36.4647 40.9948 33.9432 39.7892 31.4277C38.7341 29.2232 37.669 27.0207 36.6198 24.8142C36.5386 24.6418 36.4594 24.4695 36.3802 24.2952C36.2516 24.014 36.1249 23.7307 35.9982 23.4495C35.6616 22.7047 35.3271 21.958 34.9885 21.2133C34.6223 20.4012 34.2521 19.5911 33.874 18.7849C33.7414 18.5037 33.6087 18.2224 33.4701 17.9451C33.4325 17.8678 33.3929 17.7906 33.3514 17.7153L30.3641 26.2838L30.37 26.2799Z" fill="#FFFEF7"/>
<path fill-rule="evenodd" clip-rule="evenodd" d="M20.4301 44.1278C20.4222 43.3157 20.5667 42.9196 20.7726 42.2441C17.4923 47.6237 21.2833 50.2561 23.8371 48.9904C26.3216 47.7584 25.8781 43.8842 22.97 43.4108C22.4632 43.3276 21.9663 43.3771 21.4991 43.5494C21.0656 43.7099 20.7429 44.0367 20.4301 44.1278Z" fill="#FFFEF7"/>
<path d="M95.4929 49.3134H92.276L89.3441 42.1492H80.21L77.2702 49.3094L74.3046 49.3134L84.3732 25.6123H85.1156L95.4929 49.3134ZM88.4651 40.0615L84.6167 30.1105L80.8949 40.0615H88.4651Z" fill="#FFFEF7"/>
<path d="M144.488 28.0407H137.889V49.3075H135.039V28.0407H128.44V25.6104H144.488V28.0407Z" fill="#FFFEF7"/>
<path d="M172.516 49.3134H169.299L166.365 42.1492H157.231L154.291 49.3094L151.325 49.3134L161.394 25.6123H162.138L172.516 49.3134ZM165.486 40.0615L161.637 30.1105L157.916 40.0615H165.486Z" fill="#FFFEF7"/>
<path d="M117.259 39.0177C116.675 38.065 115.81 37.2965 114.666 36.7102C113.916 36.3339 112.617 35.8902 110.764 35.3772C108.87 34.8543 107.654 34.3373 107.112 33.8263C106.571 33.3173 106.3 32.5983 106.3 31.6713C106.3 30.671 106.67 29.857 107.409 29.2271C108.147 28.5972 109.22 28.2823 110.625 28.2823C112.031 28.2823 113.084 28.6408 113.848 29.3598C114.327 29.8094 114.682 30.4116 114.909 31.1642L117.174 30.0313C117.034 29.5995 116.857 29.1934 116.644 28.8131C116.066 27.7812 115.254 26.9909 114.209 26.4383C113.163 25.8857 111.942 25.6104 110.548 25.6104C108.519 25.6104 106.906 26.1986 105.708 27.3752C104.51 28.5517 103.912 30.0669 103.912 31.9209C103.912 32.9528 104.12 33.8758 104.538 34.6939C104.954 35.5119 105.538 36.1853 106.286 36.7161C107.036 37.247 108.295 37.7758 110.065 38.3007C112.053 38.889 113.348 39.3445 113.945 39.6674C114.543 39.9903 114.991 40.4022 115.288 40.9073C115.585 41.4104 115.733 42.0007 115.733 42.6761C115.733 43.8289 115.323 44.7677 114.508 45.4907C113.69 46.2136 112.542 46.5741 111.065 46.5741C110.034 46.5741 109.107 46.3602 108.286 45.9343C107.464 45.5065 106.83 44.942 106.389 44.2389C106.106 43.7892 105.888 43.2247 105.736 42.5473L103.453 43.6902C103.778 45.0925 104.407 46.2671 105.344 47.2139C106.724 48.6103 108.573 49.3075 110.895 49.3075C112.383 49.3075 113.656 49.0262 114.711 48.4657C115.769 47.9032 116.604 47.0851 117.218 46.0076C117.831 44.9301 118.138 43.7377 118.138 42.4265C118.138 41.1153 117.845 39.9685 117.261 39.0177" fill="#FFFEF7"/>
</g>
</g>
<defs>
<clipPath id="clip0_1_277">
<rect width="190" height="70" fill="white"/>
</clipPath>
</defs>
</svg>
